<svg xmlns="http://www.w3.org/2000/svg" width="1280" height="960" viewBox="0 0 1280 960">
  <defs>
    <linearGradient id="bg" x1="0" y1="0" x2="0" y2="1">
      <stop offset="0" stop-color="#012653"/>
      <stop offset="1" stop-color="#01173a"/>
    </linearGradient>
    <linearGradient id="glow" x1="0" y1="0" x2="0" y2="1">
      <stop offset="0" stop-color="#8dd7f7" stop-opacity="0.5"/>
      <stop offset="1" stop-color="#8dd7f7" stop-opacity="0"/>
    </linearGradient>
  </defs>
  <rect width="1280" height="960" fill="url(#bg)"/>
  <g stroke="#8dd7f7" stroke-opacity="0.055" stroke-width="1"><line x1="64" y1="0" x2="64" y2="960"/><line x1="128" y1="0" x2="128" y2="960"/><line x1="192" y1="0" x2="192" y2="960"/><line x1="256" y1="0" x2="256" y2="960"/><line x1="320" y1="0" x2="320" y2="960"/><line x1="384" y1="0" x2="384" y2="960"/><line x1="448" y1="0" x2="448" y2="960"/><line x1="512" y1="0" x2="512" y2="960"/><line x1="576" y1="0" x2="576" y2="960"/><line x1="640" y1="0" x2="640" y2="960"/><line x1="704" y1="0" x2="704" y2="960"/><line x1="768" y1="0" x2="768" y2="960"/><line x1="832" y1="0" x2="832" y2="960"/><line x1="896" y1="0" x2="896" y2="960"/><line x1="960" y1="0" x2="960" y2="960"/><line x1="1024" y1="0" x2="1024" y2="960"/><line x1="1088" y1="0" x2="1088" y2="960"/><line x1="1152" y1="0" x2="1152" y2="960"/><line x1="1216" y1="0" x2="1216" y2="960"/><line x1="0" y1="64" x2="1280" y2="64"/><line x1="0" y1="128" x2="1280" y2="128"/><line x1="0" y1="192" x2="1280" y2="192"/><line x1="0" y1="256" x2="1280" y2="256"/><line x1="0" y1="320" x2="1280" y2="320"/><line x1="0" y1="384" x2="1280" y2="384"/><line x1="0" y1="448" x2="1280" y2="448"/><line x1="0" y1="512" x2="1280" y2="512"/><line x1="0" y1="576" x2="1280" y2="576"/><line x1="0" y1="640" x2="1280" y2="640"/><line x1="0" y1="704" x2="1280" y2="704"/><line x1="0" y1="768" x2="1280" y2="768"/><line x1="0" y1="832" x2="1280" y2="832"/><line x1="0" y1="896" x2="1280" y2="896"/></g>
  
  <!-- faint echo profile -->
  <g transform="translate(96,-64)" stroke="#aecbff" stroke-opacity="0.10" fill="none" stroke-width="3">
    <rect x="290" y="200" width="700" height="430" rx="18"/>
    <line x1="290" y1="415" x2="990" y2="415"/>
    <line x1="470" y1="200" x2="470" y2="630"/>
    <line x1="810" y1="200" x2="810" y2="630"/>
  </g>
  <!-- main profile -->
  <rect x="290" y="200" width="700" height="430" rx="18" fill="#aecbff" fill-opacity="0.07" stroke="#cfe0ff" stroke-width="5"/>
  <line x1="470" y1="200" x2="470" y2="630" stroke="#aecbff" stroke-opacity="0.6" stroke-width="3"/>
  <line x1="810" y1="200" x2="810" y2="630" stroke="#aecbff" stroke-opacity="0.6" stroke-width="3"/>
  <line x1="290" y1="415" x2="990" y2="415" stroke="#aecbff" stroke-opacity="0.6" stroke-width="3"/>
  <!-- thermal break band -->
  <rect x="470" y="390" width="340" height="50" fill="#1e54ff" fill-opacity="0.35" stroke="#1e54ff" stroke-width="2" stroke-dasharray="10 6"/>
  <!-- chamber hatching -->
  <g stroke="#8dd7f7" stroke-opacity="0.22" stroke-width="1.5" clip-path="none"><line x1="300" y1="405" x2="300" y2="405"/><line x1="300" y1="387" x2="318" y2="405"/><line x1="300" y1="369" x2="336" y2="405"/><line x1="300" y1="351" x2="354" y2="405"/><line x1="300" y1="333" x2="372" y2="405"/><line x1="300" y1="315" x2="390" y2="405"/><line x1="300" y1="297" x2="408" y2="405"/><line x1="300" y1="279" x2="426" y2="405"/><line x1="300" y1="261" x2="444" y2="405"/><line x1="300" y1="243" x2="460" y2="403"/><line x1="300" y1="225" x2="460" y2="385"/><line x1="303" y1="210" x2="460" y2="367"/><line x1="321" y1="210" x2="460" y2="349"/><line x1="339" y1="210" x2="460" y2="331"/><line x1="357" y1="210" x2="460" y2="313"/><line x1="375" y1="210" x2="460" y2="295"/><line x1="393" y1="210" x2="460" y2="277"/><line x1="411" y1="210" x2="460" y2="259"/><line x1="429" y1="210" x2="460" y2="241"/><line x1="447" y1="210" x2="460" y2="223"/></g>
  <g stroke="#8dd7f7" stroke-opacity="0.22" stroke-width="1.5" clip-path="none"><line x1="820" y1="620" x2="820" y2="620"/><line x1="820" y1="602" x2="838" y2="620"/><line x1="820" y1="584" x2="856" y2="620"/><line x1="820" y1="566" x2="874" y2="620"/><line x1="820" y1="548" x2="892" y2="620"/><line x1="820" y1="530" x2="910" y2="620"/><line x1="820" y1="512" x2="928" y2="620"/><line x1="820" y1="494" x2="946" y2="620"/><line x1="820" y1="476" x2="964" y2="620"/><line x1="820" y1="458" x2="980" y2="618"/><line x1="820" y1="440" x2="980" y2="600"/><line x1="823" y1="425" x2="980" y2="582"/><line x1="841" y1="425" x2="980" y2="564"/><line x1="859" y1="425" x2="980" y2="546"/><line x1="877" y1="425" x2="980" y2="528"/><line x1="895" y1="425" x2="980" y2="510"/><line x1="913" y1="425" x2="980" y2="492"/><line x1="931" y1="425" x2="980" y2="474"/><line x1="949" y1="425" x2="980" y2="456"/><line x1="967" y1="425" x2="980" y2="438"/></g>
  <!-- gasket curves -->
  <path d="M 480 200 q 20 -26 40 0" fill="none" stroke="#8dd7f7" stroke-opacity="0.8" stroke-width="4"/>
  <path d="M 760 200 q 20 -26 40 0" fill="none" stroke="#8dd7f7" stroke-opacity="0.8" stroke-width="4"/>
  <!-- corner screw ports -->
  <g fill="none" stroke="#cfe0ff" stroke-opacity="0.8" stroke-width="3">
    <circle cx="330" cy="240" r="13"/><circle cx="950" cy="240" r="13"/>
    <circle cx="330" cy="590" r="13"/><circle cx="950" cy="590" r="13"/>
  </g>
  <!-- dimension lines -->
  <g stroke="#8dd7f7" stroke-opacity="0.65" stroke-width="2" fill="none">
    <line x1="290" y1="148" x2="990" y2="148"/>
    <line x1="290" y1="138" x2="290" y2="158"/><line x1="990" y1="138" x2="990" y2="158"/>
    <line x1="222" y1="200" x2="222" y2="630"/>
    <line x1="212" y1="200" x2="232" y2="200"/><line x1="212" y1="630" x2="232" y2="630"/>
  </g>
  <g stroke="#8dd7f7" stroke-opacity="0.3" stroke-width="1.5" stroke-dasharray="4 6">
    <line x1="290" y1="200" x2="290" y2="140"/>
    <line x1="990" y1="200" x2="990" y2="140"/>
    <line x1="290" y1="200" x2="214" y2="200"/>
    <line x1="290" y1="630" x2="214" y2="630"/>
  </g>
</svg>