<svg xmlns="http://www.w3.org/2000/svg" width="1280" height="960" viewBox="0 0 1280 960">
  <defs>
    <linearGradient id="bg" x1="0" y1="0" x2="0" y2="1">
      <stop offset="0" stop-color="#012653"/>
      <stop offset="1" stop-color="#01173a"/>
    </linearGradient>
    <linearGradient id="glow" x1="0" y1="0" x2="0" y2="1">
      <stop offset="0" stop-color="#8dd7f7" stop-opacity="0.5"/>
      <stop offset="1" stop-color="#8dd7f7" stop-opacity="0"/>
    </linearGradient>
  </defs>
  <rect width="1280" height="960" fill="url(#bg)"/>
  <g stroke="#8dd7f7" stroke-opacity="0.055" stroke-width="1"><line x1="64" y1="0" x2="64" y2="960"/><line x1="128" y1="0" x2="128" y2="960"/><line x1="192" y1="0" x2="192" y2="960"/><line x1="256" y1="0" x2="256" y2="960"/><line x1="320" y1="0" x2="320" y2="960"/><line x1="384" y1="0" x2="384" y2="960"/><line x1="448" y1="0" x2="448" y2="960"/><line x1="512" y1="0" x2="512" y2="960"/><line x1="576" y1="0" x2="576" y2="960"/><line x1="640" y1="0" x2="640" y2="960"/><line x1="704" y1="0" x2="704" y2="960"/><line x1="768" y1="0" x2="768" y2="960"/><line x1="832" y1="0" x2="832" y2="960"/><line x1="896" y1="0" x2="896" y2="960"/><line x1="960" y1="0" x2="960" y2="960"/><line x1="1024" y1="0" x2="1024" y2="960"/><line x1="1088" y1="0" x2="1088" y2="960"/><line x1="1152" y1="0" x2="1152" y2="960"/><line x1="1216" y1="0" x2="1216" y2="960"/><line x1="0" y1="64" x2="1280" y2="64"/><line x1="0" y1="128" x2="1280" y2="128"/><line x1="0" y1="192" x2="1280" y2="192"/><line x1="0" y1="256" x2="1280" y2="256"/><line x1="0" y1="320" x2="1280" y2="320"/><line x1="0" y1="384" x2="1280" y2="384"/><line x1="0" y1="448" x2="1280" y2="448"/><line x1="0" y1="512" x2="1280" y2="512"/><line x1="0" y1="576" x2="1280" y2="576"/><line x1="0" y1="640" x2="1280" y2="640"/><line x1="0" y1="704" x2="1280" y2="704"/><line x1="0" y1="768" x2="1280" y2="768"/><line x1="0" y1="832" x2="1280" y2="832"/><line x1="0" y1="896" x2="1280" y2="896"/></g>
  
  <!-- guide rails -->
  <line x1="240" y1="210" x2="240" y2="880" stroke="#aecbff" stroke-opacity="0.3" stroke-width="7"/>
  <line x1="1040" y1="210" x2="1040" y2="880" stroke="#aecbff" stroke-opacity="0.3" stroke-width="7"/>
  <!-- housing -->
  <rect x="228" y="118" width="824" height="92" rx="26" fill="#aecbff" fill-opacity="0.15" stroke="#cfe0ff" stroke-width="4"/>
  <circle cx="286" cy="164" r="22" fill="none" stroke="#cfe0ff" stroke-opacity="0.7" stroke-width="3.5"/>
  <circle cx="994" cy="164" r="22" fill="none" stroke="#cfe0ff" stroke-opacity="0.7" stroke-width="3.5"/>
  <rect x="240" y="236" width="800" height="42" rx="8" fill="#aecbff" fill-opacity="0.30" stroke="#ffffff" stroke-opacity="0.3" stroke-width="1.5"/>
  <line x1="254" y1="290" x2="1026" y2="290" stroke="#8dd7f7" stroke-opacity="0.4" stroke-width="3"/>
  <rect x="240" y="290" width="800" height="42" rx="8" fill="#aecbff" fill-opacity="0.28" stroke="#ffffff" stroke-opacity="0.3" stroke-width="1.5"/>
  <line x1="254" y1="344" x2="1026" y2="344" stroke="#8dd7f7" stroke-opacity="0.4" stroke-width="3"/>
  <rect x="240" y="344" width="800" height="42" rx="8" fill="#aecbff" fill-opacity="0.26" stroke="#ffffff" stroke-opacity="0.3" stroke-width="1.5"/>
  <line x1="254" y1="398" x2="1026" y2="398" stroke="#8dd7f7" stroke-opacity="0.4" stroke-width="3"/>
  <rect x="240" y="398" width="800" height="42" rx="8" fill="#aecbff" fill-opacity="0.24" stroke="#ffffff" stroke-opacity="0.3" stroke-width="1.5"/>
  <line x1="254" y1="452" x2="1026" y2="452" stroke="#8dd7f7" stroke-opacity="0.4" stroke-width="3"/>
  <rect x="240" y="452" width="800" height="42" rx="8" fill="#aecbff" fill-opacity="0.22" stroke="#ffffff" stroke-opacity="0.3" stroke-width="1.5"/>
  <line x1="254" y1="506" x2="1026" y2="506" stroke="#8dd7f7" stroke-opacity="0.4" stroke-width="3"/>
  <rect x="240" y="506" width="800" height="42" rx="8" fill="#aecbff" fill-opacity="0.20" stroke="#ffffff" stroke-opacity="0.3" stroke-width="1.5"/>
  <line x1="254" y1="560" x2="1026" y2="560" stroke="#8dd7f7" stroke-opacity="0.4" stroke-width="3"/>
  <rect x="240" y="560" width="800" height="42" rx="8" fill="#aecbff" fill-opacity="0.18" stroke="#ffffff" stroke-opacity="0.3" stroke-width="1.5"/>
  <line x1="254" y1="614" x2="1026" y2="614" stroke="#8dd7f7" stroke-opacity="0.4" stroke-width="3"/>
  <rect x="240" y="614" width="800" height="42" rx="8" fill="#aecbff" fill-opacity="0.16" stroke="#ffffff" stroke-opacity="0.3" stroke-width="1.5"/>
  <line x1="254" y1="668" x2="1026" y2="668" stroke="#8dd7f7" stroke-opacity="0.4" stroke-width="3"/>
  <rect x="240" y="668" width="800" height="42" rx="8" fill="#aecbff" fill-opacity="0.14" stroke="#ffffff" stroke-opacity="0.3" stroke-width="1.5"/>
  <line x1="254" y1="722" x2="1026" y2="722" stroke="#8dd7f7" stroke-opacity="0.4" stroke-width="3"/>
  <!-- light flooding in under the half-open curtain -->
  <rect x="248" y="726" width="784" height="150" fill="url(#glow)"/>
  <polygon points="340,726 470,726 300,960 170,960" fill="#8dd7f7" opacity="0.10"/>
  <polygon points="640,726 760,726 700,960 580,960" fill="#8dd7f7" opacity="0.08"/>
  <!-- bottom bar + pull -->
  <rect x="240" y="712" width="800" height="16" rx="8" fill="#cfe0ff" fill-opacity="0.8"/>
  <line x1="1078" y1="210" x2="1078" y2="470" stroke="#8dd7f7" stroke-opacity="0.6" stroke-width="2.5"/>
  <circle cx="1078" cy="486" r="10" fill="#8dd7f7" fill-opacity="0.7"/>
</svg>