<svg xmlns="http://www.w3.org/2000/svg" width="1920" height="1280" viewBox="0 0 1920 1280">
  <defs>
    <linearGradient id="bg" x1="0" y1="0" x2="0" y2="1">
      <stop offset="0" stop-color="#012653"/>
      <stop offset="1" stop-color="#01173a"/>
    </linearGradient>
    <linearGradient id="glow" x1="0" y1="0" x2="0" y2="1">
      <stop offset="0" stop-color="#8dd7f7" stop-opacity="0.45"/>
      <stop offset="1" stop-color="#8dd7f7" stop-opacity="0"/>
    </linearGradient>
  </defs>
  <rect width="1920" height="1280" fill="url(#bg)"/>
  <g stroke="#8dd7f7" stroke-opacity="0.05" stroke-width="1"><line x1="80" y1="0" x2="80" y2="1280"/><line x1="160" y1="0" x2="160" y2="1280"/><line x1="240" y1="0" x2="240" y2="1280"/><line x1="320" y1="0" x2="320" y2="1280"/><line x1="400" y1="0" x2="400" y2="1280"/><line x1="480" y1="0" x2="480" y2="1280"/><line x1="560" y1="0" x2="560" y2="1280"/><line x1="640" y1="0" x2="640" y2="1280"/><line x1="720" y1="0" x2="720" y2="1280"/><line x1="800" y1="0" x2="800" y2="1280"/><line x1="880" y1="0" x2="880" y2="1280"/><line x1="960" y1="0" x2="960" y2="1280"/><line x1="1040" y1="0" x2="1040" y2="1280"/><line x1="1120" y1="0" x2="1120" y2="1280"/><line x1="1200" y1="0" x2="1200" y2="1280"/><line x1="1280" y1="0" x2="1280" y2="1280"/><line x1="1360" y1="0" x2="1360" y2="1280"/><line x1="1440" y1="0" x2="1440" y2="1280"/><line x1="1520" y1="0" x2="1520" y2="1280"/><line x1="1600" y1="0" x2="1600" y2="1280"/><line x1="1680" y1="0" x2="1680" y2="1280"/><line x1="1760" y1="0" x2="1760" y2="1280"/><line x1="1840" y1="0" x2="1840" y2="1280"/><line x1="0" y1="80" x2="1920" y2="80"/><line x1="0" y1="160" x2="1920" y2="160"/><line x1="0" y1="240" x2="1920" y2="240"/><line x1="0" y1="320" x2="1920" y2="320"/><line x1="0" y1="400" x2="1920" y2="400"/><line x1="0" y1="480" x2="1920" y2="480"/><line x1="0" y1="560" x2="1920" y2="560"/><line x1="0" y1="640" x2="1920" y2="640"/><line x1="0" y1="720" x2="1920" y2="720"/><line x1="0" y1="800" x2="1920" y2="800"/><line x1="0" y1="880" x2="1920" y2="880"/><line x1="0" y1="960" x2="1920" y2="960"/><line x1="0" y1="1040" x2="1920" y2="1040"/><line x1="0" y1="1120" x2="1920" y2="1120"/><line x1="0" y1="1200" x2="1920" y2="1200"/></g>
  
  <!-- faint echo profile -->
  <g transform="translate(110,-70)" stroke="#aecbff" stroke-opacity="0.1" fill="none" stroke-width="3">
    <rect x="560" y="240" width="800" height="470" rx="20"/>
    <line x1="560" y1="475" x2="1360" y2="475"/>
    <line x1="760" y1="240" x2="760" y2="710"/>
    <line x1="1160" y1="240" x2="1160" y2="710"/>
  </g>
  <!-- main profile -->
  <rect x="560" y="240" width="800" height="470" rx="20" fill="#aecbff" fill-opacity="0.07" stroke="#cfe0ff" stroke-width="5"/>
  <line x1="760" y1="240" x2="760" y2="710" stroke="#aecbff" stroke-opacity="0.6" stroke-width="3"/>
  <line x1="1160" y1="240" x2="1160" y2="710" stroke="#aecbff" stroke-opacity="0.6" stroke-width="3"/>
  <line x1="560" y1="475" x2="1360" y2="475" stroke="#aecbff" stroke-opacity="0.6" stroke-width="3"/>
  <!-- thermal break band -->
  <rect x="760" y="448" width="400" height="54" fill="#1e54ff" fill-opacity="0.35" stroke="#1e54ff" stroke-width="2" stroke-dasharray="10 6"/>
  <g stroke="#8dd7f7" stroke-opacity="0.22" stroke-width="1.5"><line x1="572" y1="463" x2="572" y2="463"/><line x1="572" y1="443" x2="592" y2="463"/><line x1="572" y1="423" x2="612" y2="463"/><line x1="572" y1="403" x2="632" y2="463"/><line x1="572" y1="383" x2="652" y2="463"/><line x1="572" y1="363" x2="672" y2="463"/><line x1="572" y1="343" x2="692" y2="463"/><line x1="572" y1="323" x2="712" y2="463"/><line x1="572" y1="303" x2="732" y2="463"/><line x1="572" y1="283" x2="748" y2="459"/><line x1="572" y1="263" x2="748" y2="439"/><line x1="581" y1="252" x2="748" y2="419"/><line x1="601" y1="252" x2="748" y2="399"/><line x1="621" y1="252" x2="748" y2="379"/><line x1="641" y1="252" x2="748" y2="359"/><line x1="661" y1="252" x2="748" y2="339"/><line x1="681" y1="252" x2="748" y2="319"/><line x1="701" y1="252" x2="748" y2="299"/><line x1="721" y1="252" x2="748" y2="279"/><line x1="741" y1="252" x2="748" y2="259"/></g>
  <g stroke="#8dd7f7" stroke-opacity="0.22" stroke-width="1.5"><line x1="1172" y1="698" x2="1172" y2="698"/><line x1="1172" y1="678" x2="1192" y2="698"/><line x1="1172" y1="658" x2="1212" y2="698"/><line x1="1172" y1="638" x2="1232" y2="698"/><line x1="1172" y1="618" x2="1252" y2="698"/><line x1="1172" y1="598" x2="1272" y2="698"/><line x1="1172" y1="578" x2="1292" y2="698"/><line x1="1172" y1="558" x2="1312" y2="698"/><line x1="1172" y1="538" x2="1332" y2="698"/><line x1="1172" y1="518" x2="1348" y2="694"/><line x1="1172" y1="498" x2="1348" y2="674"/><line x1="1181" y1="487" x2="1348" y2="654"/><line x1="1201" y1="487" x2="1348" y2="634"/><line x1="1221" y1="487" x2="1348" y2="614"/><line x1="1241" y1="487" x2="1348" y2="594"/><line x1="1261" y1="487" x2="1348" y2="574"/><line x1="1281" y1="487" x2="1348" y2="554"/><line x1="1301" y1="487" x2="1348" y2="534"/><line x1="1321" y1="487" x2="1348" y2="514"/><line x1="1341" y1="487" x2="1348" y2="494"/></g>
  <!-- gaskets -->
  <path d="M 770 240 q 22 -28 44 0" fill="none" stroke="#8dd7f7" stroke-opacity="0.8" stroke-width="4"/>
  <path d="M 1106 240 q 22 -28 44 0" fill="none" stroke="#8dd7f7" stroke-opacity="0.8" stroke-width="4"/>
  <!-- corner screw ports -->
  <g fill="none" stroke="#cfe0ff" stroke-opacity="0.8" stroke-width="3">
    <circle cx="604" cy="284" r="14"/><circle cx="1316" cy="284" r="14"/>
    <circle cx="604" cy="666" r="14"/><circle cx="1316" cy="666" r="14"/>
  </g>
  <!-- dimension lines -->
  <g stroke="#8dd7f7" stroke-opacity="0.65" stroke-width="2" fill="none">
    <line x1="560" y1="185" x2="1360" y2="185"/>
    <line x1="560" y1="175" x2="560" y2="195"/>
    <line x1="1360" y1="175" x2="1360" y2="195"/>
    <line x1="488" y1="240" x2="488" y2="710"/>
    <line x1="478" y1="240" x2="498" y2="240"/>
    <line x1="478" y1="710" x2="498" y2="710"/>
  </g>
  <g stroke="#8dd7f7" stroke-opacity="0.3" stroke-width="1.5" stroke-dasharray="4 6">
    <line x1="560" y1="240" x2="560" y2="177"/>
    <line x1="1360" y1="240" x2="1360" y2="177"/>
    <line x1="560" y1="240" x2="480" y2="240"/>
    <line x1="560" y1="710" x2="480" y2="710"/>
  </g>
</svg>