<svg xmlns="http://www.w3.org/2000/svg" width="1920" height="1280" viewBox="0 0 1920 1280">
  <defs>
    <linearGradient id="bg" x1="0" y1="0" x2="0" y2="1">
      <stop offset="0" stop-color="#012653"/>
      <stop offset="1" stop-color="#01173a"/>
    </linearGradient>
    <linearGradient id="glow" x1="0" y1="0" x2="0" y2="1">
      <stop offset="0" stop-color="#8dd7f7" stop-opacity="0.45"/>
      <stop offset="1" stop-color="#8dd7f7" stop-opacity="0"/>
    </linearGradient>
  </defs>
  <rect width="1920" height="1280" fill="url(#bg)"/>
  <g stroke="#8dd7f7" stroke-opacity="0.05" stroke-width="1"><line x1="80" y1="0" x2="80" y2="1280"/><line x1="160" y1="0" x2="160" y2="1280"/><line x1="240" y1="0" x2="240" y2="1280"/><line x1="320" y1="0" x2="320" y2="1280"/><line x1="400" y1="0" x2="400" y2="1280"/><line x1="480" y1="0" x2="480" y2="1280"/><line x1="560" y1="0" x2="560" y2="1280"/><line x1="640" y1="0" x2="640" y2="1280"/><line x1="720" y1="0" x2="720" y2="1280"/><line x1="800" y1="0" x2="800" y2="1280"/><line x1="880" y1="0" x2="880" y2="1280"/><line x1="960" y1="0" x2="960" y2="1280"/><line x1="1040" y1="0" x2="1040" y2="1280"/><line x1="1120" y1="0" x2="1120" y2="1280"/><line x1="1200" y1="0" x2="1200" y2="1280"/><line x1="1280" y1="0" x2="1280" y2="1280"/><line x1="1360" y1="0" x2="1360" y2="1280"/><line x1="1440" y1="0" x2="1440" y2="1280"/><line x1="1520" y1="0" x2="1520" y2="1280"/><line x1="1600" y1="0" x2="1600" y2="1280"/><line x1="1680" y1="0" x2="1680" y2="1280"/><line x1="1760" y1="0" x2="1760" y2="1280"/><line x1="1840" y1="0" x2="1840" y2="1280"/><line x1="0" y1="80" x2="1920" y2="80"/><line x1="0" y1="160" x2="1920" y2="160"/><line x1="0" y1="240" x2="1920" y2="240"/><line x1="0" y1="320" x2="1920" y2="320"/><line x1="0" y1="400" x2="1920" y2="400"/><line x1="0" y1="480" x2="1920" y2="480"/><line x1="0" y1="560" x2="1920" y2="560"/><line x1="0" y1="640" x2="1920" y2="640"/><line x1="0" y1="720" x2="1920" y2="720"/><line x1="0" y1="800" x2="1920" y2="800"/><line x1="0" y1="880" x2="1920" y2="880"/><line x1="0" y1="960" x2="1920" y2="960"/><line x1="0" y1="1040" x2="1920" y2="1040"/><line x1="0" y1="1120" x2="1920" y2="1120"/><line x1="0" y1="1200" x2="1920" y2="1200"/></g>
  
  <polygon points="523.1543676947202,356.7 745.903864141959,382.9 745.903864141959,535.5 523.1543676947202,526.2" fill="#8dd7f7" fill-opacity="0.16"/><polygon points="745.903864141959,688.0 947.4111584390281,681.1 947.4111584390281,818.3 745.903864141959,840.5" fill="#8dd7f7" fill-opacity="0.1"/><polygon points="1126.6654409679675,551.4 1282.4061568713955,557.9 1282.4061568713955,669.6 1126.6654409679675,674.9" fill="#8dd7f7" fill-opacity="0.13"/><polygon points="1412.98650130852,461.6 1516.0933065131446,473.7 1516.0933065131446,567.7 1412.98650130852,563.3" fill="#8dd7f7" fill-opacity="0.09"/><polygon points="947.4111584390281,269.5 1126.6654409679675,304.3 1126.6654409679675,427.8 947.4111584390281,406.7" fill="#8dd7f7" fill-opacity="0.07"/>
  <line x1="280.0" y1="140.0" x2="280.0" y2="1080.0" stroke="#aecbff" stroke-opacity="0.85" stroke-width="7"/><line x1="523.2" y1="187.2" x2="523.2" y2="1034.6" stroke="#aecbff" stroke-opacity="0.5" stroke-width="4"/><line x1="745.9" y1="230.4" x2="745.9" y2="993.1" stroke="#aecbff" stroke-opacity="0.5" stroke-width="4"/><line x1="947.4" y1="269.5" x2="947.4" y2="955.5" stroke="#aecbff" stroke-opacity="0.5" stroke-width="4"/><line x1="1126.7" y1="304.3" x2="1126.7" y2="922.0" stroke="#aecbff" stroke-opacity="0.5" stroke-width="4"/><line x1="1282.4" y1="334.5" x2="1282.4" y2="893.0" stroke="#aecbff" stroke-opacity="0.5" stroke-width="4"/><line x1="1413.0" y1="359.8" x2="1413.0" y2="868.6" stroke="#aecbff" stroke-opacity="0.5" stroke-width="4"/><line x1="1516.1" y1="379.8" x2="1516.1" y2="849.4" stroke="#aecbff" stroke-opacity="0.5" stroke-width="4"/><line x1="1588.0" y1="393.8" x2="1588.0" y2="836.0" stroke="#aecbff" stroke-opacity="0.5" stroke-width="4"/><line x1="1620.0" y1="400.0" x2="1620.0" y2="830.0" stroke="#aecbff" stroke-opacity="0.5" stroke-width="4"/>
  <line x1="280" y1="140.0" x2="1620" y2="400.0" stroke="#aecbff" stroke-opacity="0.8" stroke-width="6"/><line x1="280" y1="328.0" x2="1620" y2="486.0" stroke="#aecbff" stroke-opacity="0.45" stroke-width="3.5"/><line x1="280" y1="516.0" x2="1620" y2="572.0" stroke="#aecbff" stroke-opacity="0.45" stroke-width="3.5"/><line x1="280" y1="704.0" x2="1620" y2="658.0" stroke="#aecbff" stroke-opacity="0.45" stroke-width="3.5"/><line x1="280" y1="892.0" x2="1620" y2="744.0" stroke="#aecbff" stroke-opacity="0.45" stroke-width="3.5"/><line x1="280" y1="1080.0" x2="1620" y2="830.0" stroke="#aecbff" stroke-opacity="0.8" stroke-width="6"/>
  <!-- sky reflection sweep -->
  <polygon points="430,140 700,175 480,1080 240,1035" fill="#ffffff" opacity="0.05"/>
</svg>