<svg xmlns="http://www.w3.org/2000/svg" width="1920" height="1280" viewBox="0 0 1920 1280">
  <defs>
    <linearGradient id="bg" x1="0" y1="0" x2="0" y2="1">
      <stop offset="0" stop-color="#012653"/>
      <stop offset="1" stop-color="#01173a"/>
    </linearGradient>
    <linearGradient id="glow" x1="0" y1="0" x2="0" y2="1">
      <stop offset="0" stop-color="#8dd7f7" stop-opacity="0.45"/>
      <stop offset="1" stop-color="#8dd7f7" stop-opacity="0"/>
    </linearGradient>
  </defs>
  <rect width="1920" height="1280" fill="url(#bg)"/>
  <g stroke="#8dd7f7" stroke-opacity="0.05" stroke-width="1"><line x1="80" y1="0" x2="80" y2="1280"/><line x1="160" y1="0" x2="160" y2="1280"/><line x1="240" y1="0" x2="240" y2="1280"/><line x1="320" y1="0" x2="320" y2="1280"/><line x1="400" y1="0" x2="400" y2="1280"/><line x1="480" y1="0" x2="480" y2="1280"/><line x1="560" y1="0" x2="560" y2="1280"/><line x1="640" y1="0" x2="640" y2="1280"/><line x1="720" y1="0" x2="720" y2="1280"/><line x1="800" y1="0" x2="800" y2="1280"/><line x1="880" y1="0" x2="880" y2="1280"/><line x1="960" y1="0" x2="960" y2="1280"/><line x1="1040" y1="0" x2="1040" y2="1280"/><line x1="1120" y1="0" x2="1120" y2="1280"/><line x1="1200" y1="0" x2="1200" y2="1280"/><line x1="1280" y1="0" x2="1280" y2="1280"/><line x1="1360" y1="0" x2="1360" y2="1280"/><line x1="1440" y1="0" x2="1440" y2="1280"/><line x1="1520" y1="0" x2="1520" y2="1280"/><line x1="1600" y1="0" x2="1600" y2="1280"/><line x1="1680" y1="0" x2="1680" y2="1280"/><line x1="1760" y1="0" x2="1760" y2="1280"/><line x1="1840" y1="0" x2="1840" y2="1280"/><line x1="0" y1="80" x2="1920" y2="80"/><line x1="0" y1="160" x2="1920" y2="160"/><line x1="0" y1="240" x2="1920" y2="240"/><line x1="0" y1="320" x2="1920" y2="320"/><line x1="0" y1="400" x2="1920" y2="400"/><line x1="0" y1="480" x2="1920" y2="480"/><line x1="0" y1="560" x2="1920" y2="560"/><line x1="0" y1="640" x2="1920" y2="640"/><line x1="0" y1="720" x2="1920" y2="720"/><line x1="0" y1="800" x2="1920" y2="800"/><line x1="0" y1="880" x2="1920" y2="880"/><line x1="0" y1="960" x2="1920" y2="960"/><line x1="0" y1="1040" x2="1920" y2="1040"/><line x1="0" y1="1120" x2="1920" y2="1120"/><line x1="0" y1="1200" x2="1920" y2="1200"/></g>
  
  <polygon points="300,0 560,0 -40,1280 -300,1280" fill="#ffffff" opacity="0.05"/>
  <polygon points="1150,0 1300,0 760,1280 610,1280" fill="#ffffff" opacity="0.07"/>
  <g transform="rotate(-6 960 560)">
      <rect x="380" y="150" width="560" height="720" rx="10" fill="#8dd7f7" fill-opacity="0.07" stroke="#ffffff" stroke-opacity="0.30" stroke-width="3"/>
      <polygon points="380,150 540,150 380,310" fill="#ffffff" opacity="0.10"/>
    </g><g transform="rotate(-6 960 560)">
      <rect x="620" y="205" width="560" height="720" rx="10" fill="#8dd7f7" fill-opacity="0.12" stroke="#ffffff" stroke-opacity="0.41" stroke-width="3"/>
      <polygon points="620,205 780,205 620,365" fill="#ffffff" opacity="0.15"/>
    </g><g transform="rotate(-6 960 560)">
      <rect x="860" y="260" width="560" height="720" rx="10" fill="#8dd7f7" fill-opacity="0.17" stroke="#ffffff" stroke-opacity="0.52" stroke-width="3"/>
      <polygon points="860,260 1020,260 860,420" fill="#ffffff" opacity="0.20"/>
    </g>
  <g transform="rotate(-6 960 560)">
    <line x1="1420" y1="325" x2="1420" y2="1035" stroke="#8dd7f7" stroke-opacity="0.9" stroke-width="5"/>
  </g>
  <g fill="#8dd7f7">
    <circle cx="1610" cy="220" r="13" opacity="0.4"/>
    <circle cx="1700" cy="330" r="8" opacity="0.3"/>
    <circle cx="1540" cy="150" r="6" opacity="0.5"/>
    <circle cx="260" cy="880" r="10" opacity="0.25"/>
  </g>
</svg>