<svg xmlns="http://www.w3.org/2000/svg" width="1920" height="1280" viewBox="0 0 1920 1280">
  <defs>
    <linearGradient id="bg" x1="0" y1="0" x2="0" y2="1">
      <stop offset="0" stop-color="#012653"/>
      <stop offset="1" stop-color="#01173a"/>
    </linearGradient>
    <linearGradient id="glow" x1="0" y1="0" x2="0" y2="1">
      <stop offset="0" stop-color="#8dd7f7" stop-opacity="0.45"/>
      <stop offset="1" stop-color="#8dd7f7" stop-opacity="0"/>
    </linearGradient>
  </defs>
  <rect width="1920" height="1280" fill="url(#bg)"/>
  <g stroke="#8dd7f7" stroke-opacity="0.05" stroke-width="1"><line x1="80" y1="0" x2="80" y2="1280"/><line x1="160" y1="0" x2="160" y2="1280"/><line x1="240" y1="0" x2="240" y2="1280"/><line x1="320" y1="0" x2="320" y2="1280"/><line x1="400" y1="0" x2="400" y2="1280"/><line x1="480" y1="0" x2="480" y2="1280"/><line x1="560" y1="0" x2="560" y2="1280"/><line x1="640" y1="0" x2="640" y2="1280"/><line x1="720" y1="0" x2="720" y2="1280"/><line x1="800" y1="0" x2="800" y2="1280"/><line x1="880" y1="0" x2="880" y2="1280"/><line x1="960" y1="0" x2="960" y2="1280"/><line x1="1040" y1="0" x2="1040" y2="1280"/><line x1="1120" y1="0" x2="1120" y2="1280"/><line x1="1200" y1="0" x2="1200" y2="1280"/><line x1="1280" y1="0" x2="1280" y2="1280"/><line x1="1360" y1="0" x2="1360" y2="1280"/><line x1="1440" y1="0" x2="1440" y2="1280"/><line x1="1520" y1="0" x2="1520" y2="1280"/><line x1="1600" y1="0" x2="1600" y2="1280"/><line x1="1680" y1="0" x2="1680" y2="1280"/><line x1="1760" y1="0" x2="1760" y2="1280"/><line x1="1840" y1="0" x2="1840" y2="1280"/><line x1="0" y1="80" x2="1920" y2="80"/><line x1="0" y1="160" x2="1920" y2="160"/><line x1="0" y1="240" x2="1920" y2="240"/><line x1="0" y1="320" x2="1920" y2="320"/><line x1="0" y1="400" x2="1920" y2="400"/><line x1="0" y1="480" x2="1920" y2="480"/><line x1="0" y1="560" x2="1920" y2="560"/><line x1="0" y1="640" x2="1920" y2="640"/><line x1="0" y1="720" x2="1920" y2="720"/><line x1="0" y1="800" x2="1920" y2="800"/><line x1="0" y1="880" x2="1920" y2="880"/><line x1="0" y1="960" x2="1920" y2="960"/><line x1="0" y1="1040" x2="1920" y2="1040"/><line x1="0" y1="1120" x2="1920" y2="1120"/><line x1="0" y1="1200" x2="1920" y2="1200"/></g>
  
  <!-- window handle -->
  <circle cx="700" cy="520" r="76" fill="#aecbff" fill-opacity="0.1" stroke="#cfe0ff" stroke-width="6"/>
  <circle cx="700" cy="520" r="27" fill="none" stroke="#cfe0ff" stroke-opacity="0.8" stroke-width="4"/>
  <g transform="rotate(-35 700 520)">
    <rect x="700" y="488" width="360" height="64" rx="32" fill="#aecbff" fill-opacity="0.16" stroke="#eef3ff" stroke-width="5"/>
  </g>
  <path d="M 700 640 A 180 180 0 0 0 850 690" fill="none" stroke="#8dd7f7" stroke-opacity="0.45" stroke-width="3" stroke-dasharray="8 8"/>
  <!-- euro cylinder -->
  <circle cx="1240" cy="380" r="85" fill="#aecbff" fill-opacity="0.1" stroke="#cfe0ff" stroke-width="5"/>
  <rect x="1206" y="420" width="68" height="180" rx="30" fill="#aecbff" fill-opacity="0.1" stroke="#cfe0ff" stroke-width="5"/>
  <line x1="1240" y1="330" x2="1240" y2="430" stroke="#8dd7f7" stroke-opacity="0.9" stroke-width="6"/>
  <circle cx="1240" cy="380" r="12" fill="#1e54ff" fill-opacity="0.8"/>
  <!-- hinge -->
  <g stroke="#cfe0ff" stroke-opacity="0.85" fill="#aecbff" fill-opacity="0.08">
    <rect x="1520" y="620" width="86" height="300" rx="8" stroke-width="5"/>
    <rect x="1660" y="620" width="86" height="300" rx="8" stroke-width="5"/>
  </g>
  <g fill="none" stroke="#8dd7f7" stroke-opacity="0.8" stroke-width="4">
    <circle cx="1633" cy="660" r="16"/>
    <circle cx="1633" cy="720" r="16"/>
    <circle cx="1633" cy="780" r="16"/>
    <circle cx="1633" cy="840" r="16"/>
  </g>
  <!-- screws + leaders -->
  <g fill="none" stroke="#cfe0ff" stroke-opacity="0.75" stroke-width="3.5">
    <circle cx="980" cy="270" r="20"/><line x1="966" y1="256" x2="994" y2="284"/>
    <circle cx="1060" cy="700" r="20"/><line x1="1046" y1="714" x2="1074" y2="686"/>
  </g>
  <g stroke="#8dd7f7" stroke-opacity="0.35" stroke-width="2.5" stroke-dasharray="6 8">
    <line x1="1000" y1="285" x2="1160" y2="350"/>
    <line x1="1080" y1="685" x2="1210" y2="590"/>
    <line x1="900" y1="560" x2="790" y2="545"/>
  </g>
</svg>