<svg xmlns="http://www.w3.org/2000/svg" width="1920" height="1280" viewBox="0 0 1920 1280">
  <defs>
    <linearGradient id="bg" x1="0" y1="0" x2="0" y2="1">
      <stop offset="0" stop-color="#012653"/>
      <stop offset="1" stop-color="#01173a"/>
    </linearGradient>
    <linearGradient id="glow" x1="0" y1="0" x2="0" y2="1">
      <stop offset="0" stop-color="#8dd7f7" stop-opacity="0.45"/>
      <stop offset="1" stop-color="#8dd7f7" stop-opacity="0"/>
    </linearGradient>
  </defs>
  <rect width="1920" height="1280" fill="url(#bg)"/>
  <g stroke="#8dd7f7" stroke-opacity="0.05" stroke-width="1"><line x1="80" y1="0" x2="80" y2="1280"/><line x1="160" y1="0" x2="160" y2="1280"/><line x1="240" y1="0" x2="240" y2="1280"/><line x1="320" y1="0" x2="320" y2="1280"/><line x1="400" y1="0" x2="400" y2="1280"/><line x1="480" y1="0" x2="480" y2="1280"/><line x1="560" y1="0" x2="560" y2="1280"/><line x1="640" y1="0" x2="640" y2="1280"/><line x1="720" y1="0" x2="720" y2="1280"/><line x1="800" y1="0" x2="800" y2="1280"/><line x1="880" y1="0" x2="880" y2="1280"/><line x1="960" y1="0" x2="960" y2="1280"/><line x1="1040" y1="0" x2="1040" y2="1280"/><line x1="1120" y1="0" x2="1120" y2="1280"/><line x1="1200" y1="0" x2="1200" y2="1280"/><line x1="1280" y1="0" x2="1280" y2="1280"/><line x1="1360" y1="0" x2="1360" y2="1280"/><line x1="1440" y1="0" x2="1440" y2="1280"/><line x1="1520" y1="0" x2="1520" y2="1280"/><line x1="1600" y1="0" x2="1600" y2="1280"/><line x1="1680" y1="0" x2="1680" y2="1280"/><line x1="1760" y1="0" x2="1760" y2="1280"/><line x1="1840" y1="0" x2="1840" y2="1280"/><line x1="0" y1="80" x2="1920" y2="80"/><line x1="0" y1="160" x2="1920" y2="160"/><line x1="0" y1="240" x2="1920" y2="240"/><line x1="0" y1="320" x2="1920" y2="320"/><line x1="0" y1="400" x2="1920" y2="400"/><line x1="0" y1="480" x2="1920" y2="480"/><line x1="0" y1="560" x2="1920" y2="560"/><line x1="0" y1="640" x2="1920" y2="640"/><line x1="0" y1="720" x2="1920" y2="720"/><line x1="0" y1="800" x2="1920" y2="800"/><line x1="0" y1="880" x2="1920" y2="880"/><line x1="0" y1="960" x2="1920" y2="960"/><line x1="0" y1="1040" x2="1920" y2="1040"/><line x1="0" y1="1120" x2="1920" y2="1120"/><line x1="0" y1="1200" x2="1920" y2="1200"/></g>
  
  <!-- light beams from upper right -->
  <polygon points="1920,90 1920,230 300,1060 300,920" fill="#8dd7f7" opacity="0.1"/>
  <polygon points="1920,330 1920,430 560,1130 560,1030" fill="#8dd7f7" opacity="0.07"/>
  <polygon points="340,220 402,252 402,920 340,888" fill="#aecbff" fill-opacity="0.240" stroke="#ffffff" stroke-opacity="0.35" stroke-width="2.5"/>
  <polygon points="490,220 552,252 552,920 490,888" fill="#aecbff" fill-opacity="0.228" stroke="#ffffff" stroke-opacity="0.35" stroke-width="2.5"/>
  <polygon points="640,220 702,252 702,920 640,888" fill="#aecbff" fill-opacity="0.216" stroke="#ffffff" stroke-opacity="0.35" stroke-width="2.5"/>
  <polygon points="790,220 852,252 852,920 790,888" fill="#aecbff" fill-opacity="0.204" stroke="#ffffff" stroke-opacity="0.35" stroke-width="2.5"/>
  <polygon points="940,220 1002,252 1002,920 940,888" fill="#aecbff" fill-opacity="0.192" stroke="#ffffff" stroke-opacity="0.35" stroke-width="2.5"/>
  <polygon points="1090,220 1152,252 1152,920 1090,888" fill="#aecbff" fill-opacity="0.180" stroke="#ffffff" stroke-opacity="0.35" stroke-width="2.5"/>
  <polygon points="1240,220 1302,252 1302,920 1240,888" fill="#aecbff" fill-opacity="0.168" stroke="#ffffff" stroke-opacity="0.35" stroke-width="2.5"/>
  <polygon points="1390,220 1452,252 1452,920 1390,888" fill="#aecbff" fill-opacity="0.156" stroke="#ffffff" stroke-opacity="0.35" stroke-width="2.5"/>
  <polygon points="1540,220 1602,252 1602,920 1540,888" fill="#aecbff" fill-opacity="0.144" stroke="#ffffff" stroke-opacity="0.35" stroke-width="2.5"/>
  <!-- header + footer rails -->
  <line x1="300" y1="205" x2="1720" y2="240" stroke="#cfe0ff" stroke-opacity="0.8" stroke-width="6"/>
  <line x1="300" y1="903" x2="1720" y2="938" stroke="#cfe0ff" stroke-opacity="0.6" stroke-width="6"/>
  <!-- glow spilling below -->
  <rect x="330" y="950" width="1360" height="140" fill="url(#glow)" opacity="0.5"/>
</svg>