<svg xmlns="http://www.w3.org/2000/svg" width="1920" height="1280" viewBox="0 0 1920 1280">
  <defs>
    <linearGradient id="bg" x1="0" y1="0" x2="0" y2="1">
      <stop offset="0" stop-color="#012653"/>
      <stop offset="1" stop-color="#01173a"/>
    </linearGradient>
    <linearGradient id="glow" x1="0" y1="0" x2="0" y2="1">
      <stop offset="0" stop-color="#8dd7f7" stop-opacity="0.45"/>
      <stop offset="1" stop-color="#8dd7f7" stop-opacity="0"/>
    </linearGradient>
  </defs>
  <rect width="1920" height="1280" fill="url(#bg)"/>
  <g stroke="#8dd7f7" stroke-opacity="0.05" stroke-width="1"><line x1="80" y1="0" x2="80" y2="1280"/><line x1="160" y1="0" x2="160" y2="1280"/><line x1="240" y1="0" x2="240" y2="1280"/><line x1="320" y1="0" x2="320" y2="1280"/><line x1="400" y1="0" x2="400" y2="1280"/><line x1="480" y1="0" x2="480" y2="1280"/><line x1="560" y1="0" x2="560" y2="1280"/><line x1="640" y1="0" x2="640" y2="1280"/><line x1="720" y1="0" x2="720" y2="1280"/><line x1="800" y1="0" x2="800" y2="1280"/><line x1="880" y1="0" x2="880" y2="1280"/><line x1="960" y1="0" x2="960" y2="1280"/><line x1="1040" y1="0" x2="1040" y2="1280"/><line x1="1120" y1="0" x2="1120" y2="1280"/><line x1="1200" y1="0" x2="1200" y2="1280"/><line x1="1280" y1="0" x2="1280" y2="1280"/><line x1="1360" y1="0" x2="1360" y2="1280"/><line x1="1440" y1="0" x2="1440" y2="1280"/><line x1="1520" y1="0" x2="1520" y2="1280"/><line x1="1600" y1="0" x2="1600" y2="1280"/><line x1="1680" y1="0" x2="1680" y2="1280"/><line x1="1760" y1="0" x2="1760" y2="1280"/><line x1="1840" y1="0" x2="1840" y2="1280"/><line x1="0" y1="80" x2="1920" y2="80"/><line x1="0" y1="160" x2="1920" y2="160"/><line x1="0" y1="240" x2="1920" y2="240"/><line x1="0" y1="320" x2="1920" y2="320"/><line x1="0" y1="400" x2="1920" y2="400"/><line x1="0" y1="480" x2="1920" y2="480"/><line x1="0" y1="560" x2="1920" y2="560"/><line x1="0" y1="640" x2="1920" y2="640"/><line x1="0" y1="720" x2="1920" y2="720"/><line x1="0" y1="800" x2="1920" y2="800"/><line x1="0" y1="880" x2="1920" y2="880"/><line x1="0" y1="960" x2="1920" y2="960"/><line x1="0" y1="1040" x2="1920" y2="1040"/><line x1="0" y1="1120" x2="1920" y2="1120"/><line x1="0" y1="1200" x2="1920" y2="1200"/></g>
  
  <!-- tracks -->
  <g stroke="#aecbff" stroke-opacity="0.55" stroke-width="7">
    <line x1="200" y1="250" x2="1720" y2="250"/>
    <line x1="200" y1="900" x2="1720" y2="900"/>
  </g>
  <g stroke="#aecbff" stroke-opacity="0.25" stroke-width="3">
    <line x1="200" y1="268" x2="1720" y2="268"/>
    <line x1="200" y1="882" x2="1720" y2="882"/>
  </g>
  <!-- rear panel -->
  <rect x="330" y="286" width="580" height="580" fill="#8dd7f7" fill-opacity="0.06" stroke="#aecbff" stroke-opacity="0.55" stroke-width="6"/>
  <line x1="420" y1="760" x2="700" y2="400" stroke="#ffffff" stroke-opacity="0.09" stroke-width="8"/>
  <!-- front panel, mid-slide -->
  <rect x="800" y="296" width="660" height="560" fill="#8dd7f7" fill-opacity="0.13" stroke="#eef3ff" stroke-width="9"/>
  <line x1="900" y1="740" x2="1240" y2="380" stroke="#ffffff" stroke-opacity="0.15" stroke-width="9"/>
  <rect x="822" y="540" width="14" height="80" rx="7" fill="#eef3ff"/>
  <!-- motion ghosts -->
  <g stroke="#cfe0ff">
    <line x1="762" y1="310" x2="762" y2="842" stroke-opacity="0.35" stroke-width="5"/>
    <line x1="726" y1="322" x2="726" y2="830" stroke-opacity="0.2" stroke-width="4"/>
    <line x1="694" y1="334" x2="694" y2="818" stroke-opacity="0.1" stroke-width="3"/>
  </g>
  <!-- direction chevrons -->
  <g fill="none" stroke="#8dd7f7" stroke-opacity="0.8" stroke-width="7" stroke-linecap="round" stroke-linejoin="round">
    <polyline points="1530,540 1580,576 1530,612"/>
    <polyline points="1590,540 1640,576 1590,612"/>
  </g>
  <!-- rollers -->
  <circle cx="870" cy="880" r="14" fill="none" stroke="#cfe0ff" stroke-opacity="0.8" stroke-width="4"/>
  <circle cx="1390" cy="880" r="14" fill="none" stroke="#cfe0ff" stroke-opacity="0.8" stroke-width="4"/>
</svg>