<svg xmlns="http://www.w3.org/2000/svg" width="1920" height="1280" viewBox="0 0 1920 1280">
  <defs>
    <linearGradient id="bg" x1="0" y1="0" x2="0" y2="1">
      <stop offset="0" stop-color="#012653"/>
      <stop offset="1" stop-color="#01173a"/>
    </linearGradient>
    <linearGradient id="glow" x1="0" y1="0" x2="0" y2="1">
      <stop offset="0" stop-color="#8dd7f7" stop-opacity="0.45"/>
      <stop offset="1" stop-color="#8dd7f7" stop-opacity="0"/>
    </linearGradient>
  </defs>
  <rect width="1920" height="1280" fill="url(#bg)"/>
  <g stroke="#8dd7f7" stroke-opacity="0.05" stroke-width="1"><line x1="80" y1="0" x2="80" y2="1280"/><line x1="160" y1="0" x2="160" y2="1280"/><line x1="240" y1="0" x2="240" y2="1280"/><line x1="320" y1="0" x2="320" y2="1280"/><line x1="400" y1="0" x2="400" y2="1280"/><line x1="480" y1="0" x2="480" y2="1280"/><line x1="560" y1="0" x2="560" y2="1280"/><line x1="640" y1="0" x2="640" y2="1280"/><line x1="720" y1="0" x2="720" y2="1280"/><line x1="800" y1="0" x2="800" y2="1280"/><line x1="880" y1="0" x2="880" y2="1280"/><line x1="960" y1="0" x2="960" y2="1280"/><line x1="1040" y1="0" x2="1040" y2="1280"/><line x1="1120" y1="0" x2="1120" y2="1280"/><line x1="1200" y1="0" x2="1200" y2="1280"/><line x1="1280" y1="0" x2="1280" y2="1280"/><line x1="1360" y1="0" x2="1360" y2="1280"/><line x1="1440" y1="0" x2="1440" y2="1280"/><line x1="1520" y1="0" x2="1520" y2="1280"/><line x1="1600" y1="0" x2="1600" y2="1280"/><line x1="1680" y1="0" x2="1680" y2="1280"/><line x1="1760" y1="0" x2="1760" y2="1280"/><line x1="1840" y1="0" x2="1840" y2="1280"/><line x1="0" y1="80" x2="1920" y2="80"/><line x1="0" y1="160" x2="1920" y2="160"/><line x1="0" y1="240" x2="1920" y2="240"/><line x1="0" y1="320" x2="1920" y2="320"/><line x1="0" y1="400" x2="1920" y2="400"/><line x1="0" y1="480" x2="1920" y2="480"/><line x1="0" y1="560" x2="1920" y2="560"/><line x1="0" y1="640" x2="1920" y2="640"/><line x1="0" y1="720" x2="1920" y2="720"/><line x1="0" y1="800" x2="1920" y2="800"/><line x1="0" y1="880" x2="1920" y2="880"/><line x1="0" y1="960" x2="1920" y2="960"/><line x1="0" y1="1040" x2="1920" y2="1040"/><line x1="0" y1="1120" x2="1920" y2="1120"/><line x1="0" y1="1200" x2="1920" y2="1200"/></g>
  
  
    <rect x="320" y="200" width="400" height="560" rx="4" fill="none" stroke="#eef3ff" stroke-width="12"/>
    <rect x="346" y="226" width="348" height="508" rx="2" fill="#8dd7f7" fill-opacity="0.07" stroke="#cfe0ff" stroke-opacity="0.7" stroke-width="4"/>
    <line x1="390" y1="600" x2="620" y2="300" stroke="#ffffff" stroke-opacity="0.13" stroke-width="8"/>
           <line x1="420" y1="620" x2="640" y2="340" stroke="#ffffff" stroke-opacity="0.08" stroke-width="6"/>
  
    <rect x="800" y="200" width="400" height="560" rx="4" fill="none" stroke="#eef3ff" stroke-width="12"/>
    <rect x="826" y="226" width="348" height="508" rx="2" fill="#8dd7f7" fill-opacity="0.07" stroke="#cfe0ff" stroke-opacity="0.7" stroke-width="4"/>
    <rect x="994" y="226" width="12" height="508" fill="#eef3ff"/>
           <rect x="826" y="474" width="348" height="12" fill="#eef3ff"/>
           <polygon points="1012,234 1198,214 1198,462 1012,466" fill="#cfe0ff" fill-opacity="0.12" stroke="#ffffff" stroke-opacity="0.55" stroke-width="3"/>
           <line x1="1012" y1="234" x2="1012" y2="466" stroke="#1e54ff" stroke-opacity="0.9" stroke-width="4"/>
  
    <rect x="1280" y="200" width="400" height="560" rx="4" fill="none" stroke="#eef3ff" stroke-width="12"/>
    <rect x="1306" y="226" width="348" height="508" rx="2" fill="#8dd7f7" fill-opacity="0.07" stroke="#cfe0ff" stroke-opacity="0.7" stroke-width="4"/>
    <line x1="1350" y1="600" x2="1580" y2="300" stroke="#ffffff" stroke-opacity="0.13" stroke-width="8"/>
           <line x1="1380" y1="620" x2="1600" y2="340" stroke="#ffffff" stroke-opacity="0.08" stroke-width="6"/>
  <line x1="240" y1="800" x2="1760" y2="800" stroke="#aecbff" stroke-opacity="0.5" stroke-width="6"/>
  <line x1="240" y1="818" x2="1760" y2="818" stroke="#aecbff" stroke-opacity="0.2" stroke-width="3"/>
</svg>